<?xml version="1.0" encoding="UTF-8" standalone="no"?>
<!DOCTYPE svg PUBLIC "-//W3C//DTD SVG 1.1//EN" "http://www.w3.org/Graphics/SVG/1.1/DTD/svg11.dtd">
<svg width="100%" height="100%" viewBox="0 0 932 264" version="1.1" xmlns="http://www.w3.org/2000/svg" xmlns:xlink="http://www.w3.org/1999/xlink" xml:space="preserve" xmlns:serif="http://www.serif.com/" style="fill-rule:evenodd;clip-rule:evenodd;stroke-linejoin:round;stroke-miterlimit:1.41421;">
    <g transform="matrix(1,0,0,1,-174.328,-268.318)">
        <g transform="matrix(1,0,0,1,-13.0137,88.7318)">
            <path d="M1118.68,310.89C1118.68,238.422 1059.85,179.587 987.382,179.587L318.646,179.587C246.177,179.587 187.342,238.422 187.342,310.89L187.342,311.646C187.342,384.115 246.177,442.95 318.646,442.95L987.382,442.95C1059.85,442.95 1118.68,384.115 1118.68,311.646L1118.68,310.89Z" style="fill:rgb(214,158,29);"/>
        </g>
        <g transform="matrix(1,0,0,1,29.9183,93.1295)">
            <path d="M306.386,257.119L347.426,257.119C358.082,257.119 367.49,259.255 375.65,263.527C383.81,267.799 390.146,273.751 394.658,281.383C399.17,289.015 401.426,297.727 401.426,307.519C401.426,317.311 399.17,326.023 394.658,333.655C390.146,341.287 383.81,347.239 375.65,351.511C367.49,355.783 358.082,357.919 347.426,357.919L306.386,357.919L306.386,257.119ZM346.85,348.703C355.682,348.703 363.41,346.951 370.034,343.447C376.658,339.943 381.794,335.095 385.442,328.903C389.09,322.711 390.914,315.583 390.914,307.519C390.914,299.455 389.09,292.327 385.442,286.135C381.794,279.943 376.658,275.095 370.034,271.591C363.41,268.087 355.682,266.335 346.85,266.335L317.042,266.335L317.042,348.703L346.85,348.703Z" style="fill:white;fill-rule:nonzero;"/>
            <path d="M469.394,358.783C459.41,358.783 450.362,356.551 442.25,352.087C434.138,347.623 427.802,341.503 423.242,333.727C418.682,325.951 416.402,317.215 416.402,307.519C416.402,297.823 418.682,289.087 423.242,281.311C427.802,273.535 434.138,267.415 442.25,262.951C450.362,258.487 459.41,256.255 469.394,256.255C479.378,256.255 488.378,258.463 496.394,262.879C504.41,267.295 510.722,273.415 515.33,281.239C519.938,289.063 522.242,297.823 522.242,307.519C522.242,317.215 519.938,325.975 515.33,333.799C510.722,341.623 504.41,347.743 496.394,352.159C488.378,356.575 479.378,358.783 469.394,358.783ZM469.394,349.279C477.362,349.279 484.562,347.479 490.994,343.879C497.426,340.279 502.466,335.287 506.114,328.903C509.762,322.519 511.586,315.391 511.586,307.519C511.586,299.647 509.762,292.519 506.114,286.135C502.466,279.751 497.426,274.759 490.994,271.159C484.562,267.559 477.362,265.759 469.394,265.759C461.426,265.759 454.202,267.559 447.722,271.159C441.242,274.759 436.154,279.751 432.458,286.135C428.762,292.519 426.914,299.647 426.914,307.519C426.914,315.391 428.762,322.519 432.458,328.903C436.154,335.287 441.242,340.279 447.722,343.879C454.202,347.479 461.426,349.279 469.394,349.279Z" style="fill:white;fill-rule:nonzero;"/>
            <path d="M630.386,257.119L630.386,357.919L621.602,357.919L556.802,276.127L556.802,357.919L546.146,357.919L546.146,257.119L554.93,257.119L619.874,338.911L619.874,257.119L630.386,257.119Z" style="fill:white;fill-rule:nonzero;"/>
            <path d="M726.434,330.991L670.274,330.991L658.178,357.919L647.09,357.919L693.17,257.119L703.682,257.119L749.762,357.919L738.53,357.919L726.434,330.991ZM722.546,322.351L698.354,268.207L674.162,322.351L722.546,322.351Z" style="fill:white;fill-rule:nonzero;"/>
            <path d="M781.01,266.335L745.586,266.335L745.586,257.119L827.09,257.119L827.09,266.335L791.666,266.335L791.666,357.919L781.01,357.919L781.01,266.335Z" style="fill:white;fill-rule:nonzero;"/>
            <path d="M915.362,348.703L915.362,357.919L844.082,357.919L844.082,257.119L913.202,257.119L913.202,266.335L854.738,266.335L854.738,302.191L906.866,302.191L906.866,311.263L854.738,311.263L854.738,348.703L915.362,348.703Z" style="fill:white;fill-rule:nonzero;"/>
        </g>
    </g>
</svg>
